<svg width="23" height="23" viewBox="0 0 18 18" fill="none" xmlns="http://www.w3.org/2000/svg">
    <path d="M8.99935 0.666016C4.40435 0.666016 0.666016 4.40435 0.666016 8.99935C0.666016 13.5943 4.40435 17.3327 8.99935 17.3327C13.5943 17.3327 17.3327 13.5943 17.3327 8.99935C17.3327 4.40435 13.5943 0.666016 8.99935 0.666016ZM12.5664 7.56643L8.39977 11.7331C8.27768 11.8552 8.11768 11.916 7.95768 11.916C7.79768 11.916 7.63768 11.8552 7.5156 11.7331L5.43227 9.64977C5.1881 9.4056 5.1881 9.01018 5.43227 8.76602C5.67643 8.52185 6.07185 8.52185 6.31602 8.76602L7.95727 10.4073L11.6818 6.68268C11.926 6.43852 12.3214 6.43852 12.5656 6.68268C12.8098 6.92685 12.8102 7.32227 12.5664 7.56643Z"
          fill="#40C057" fill-opacity="0.8"/>
</svg>
