<svg width="16" height="16" viewBox="0 0 16 16" fill="none" xmlns="http://www.w3.org/2000/svg">
    <g clip-path="url(#clip0_646_1595)">
        <path d="M3.66674 3.33398H12.3334C12.4294 3.36766 12.5164 3.42286 12.5878 3.49536C12.6592 3.56786 12.7131 3.65574 12.7452 3.75227C12.7774 3.84879 12.7871 3.9514 12.7735 4.05223C12.7598 4.15306 12.7233 4.24944 12.6667 4.33398L9.33341 8.00065V12.6673L6.66674 10.6673V8.00065L3.3334 4.33398C3.2768 4.24944 3.2403 4.15306 3.22669 4.05223C3.21309 3.9514 3.22274 3.84879 3.25491 3.75227C3.28709 3.65574 3.34093 3.56786 3.41231 3.49536C3.4837 3.42286 3.57073 3.36766 3.66674 3.33398Z" stroke="#2E6AC3" stroke-width="1.5" stroke-linecap="round" stroke-linejoin="round"/>
    </g>
    <defs>
        <clipPath id="clip0_646_1595">
            <rect width="16" height="16" fill="white"/>
        </clipPath>
    </defs>
</svg>
