<svg width="87" height="80" viewBox="0 0 87 80" fill="none" xmlns="http://www.w3.org/2000/svg">
    <path d="M67.9782 34.4262C67.9782 15.9649 52.9851 1 34.4891 1C15.9931 1 1 15.9649 1 34.4262C1 52.8875 15.9931 67.8525 34.4891 67.8525" stroke="#939393" stroke-width="1.5" stroke-linecap="round" stroke-linejoin="round"/>
    <path d="M36.1807 67.3296C54.6763 67.3296 67.9756 52.8858 67.9756 34.4249" stroke="#939393" stroke-width="1.5" stroke-linecap="round" stroke-linejoin="round"/>
    <path d="M37.8385 1.16553C37.8385 1.16553 47.8853 14.3689 47.8853 34.4246M31.1407 67.6837C31.1407 67.6837 21.094 54.4804 21.094 34.4246C21.094 14.3689 31.1407 1.16553 31.1407 1.16553M3.11035 46.1238L32.2737 46.1238M3.11035 22.7255H65.8689" stroke="#939393" stroke-width="1.5" stroke-linecap="round" stroke-linejoin="round"/>
    <path d="M39.4551 70.1183C39.4551 70.1183 47.9096 54.8702 47.9096 34.8145" stroke="#939393" stroke-width="1.5" stroke-linecap="round" stroke-linejoin="round"/>
    <path d="M29.3832 42.3967C31.2229 41.7367 33.2856 42.6309 33.9769 44.3873L39.8417 64.8439L49.3301 33.7916C49.7761 32.3332 51.1698 31.3432 52.7531 31.3432C54.3363 31.3432 55.73 32.3439 56.176 33.7916L65.6644 64.8439L80.0921 29.2212C80.7834 27.4647 82.8349 26.5705 84.6858 27.2305C86.5366 27.8905 87.4621 29.8599 86.7708 31.6164L68.5745 76.8304C68.0393 78.2037 66.6344 79.0979 65.0958 79.034C63.5571 78.9701 62.2303 77.9908 61.8066 76.5856L52.7531 46.9172L43.6884 76.5856C43.2535 77.9908 41.9267 78.9808 40.3992 79.034C38.8717 79.0872 37.4668 78.2037 36.9205 76.8304L27.2871 46.7825C26.5958 45.0261 27.5324 43.0567 29.3832 42.3967Z" fill="#939393"/>
</svg>
