<svg width="20" height="20" viewBox="0 0 20 20" fill="none" xmlns="http://www.w3.org/2000/svg">
    <path d="M15.294 6.31091C15.2168 6.23191 15.1113 6.18682 15.0008 6.18557C14.8903 6.18432 14.7839 6.22701 14.7049 6.30425L8.19985 12.8101L5.29402 9.90508C5.21544 9.82918 5.11019 9.78718 5.00094 9.78813C4.89169 9.78908 4.78718 9.8329 4.70993 9.91015C4.63268 9.98741 4.58886 10.0919 4.58791 10.2012C4.58696 10.3104 4.62895 10.4157 4.70485 10.4942L7.90485 13.6942C7.94343 13.7331 7.98932 13.764 8.03988 13.785C8.09044 13.8061 8.14467 13.8169 8.19944 13.8169C8.25421 13.8169 8.30843 13.8061 8.35899 13.785C8.40955 13.764 8.45544 13.7331 8.49402 13.6942L15.294 6.89425C15.3704 6.81636 15.4131 6.71164 15.4131 6.60258C15.4131 6.49352 15.3704 6.3888 15.294 6.31091Z" fill="#FFD233"/>
</svg>
